<svg width="458" height="96" viewBox="0 0 458 96" fill="none" xmlns="http://www.w3.org/2000/svg">
<path d="M44.3786 57.6336C42.4033 57.6336 40.4279 57.6336 38.3667 57.6336C34.7595 57.6336 47.0411 74.8109 55.8873 76.7863C57.8626 77.2157 58.8933 78.1604 58.8933 80.1358C58.8933 84.3442 58.9791 88.5527 58.8933 92.7611C58.8074 95.1659 57.4332 96.2824 55.1143 95.9389C38.1949 93.1046 25.8274 84.0866 18.1836 68.7129C17.0671 66.5658 16.2082 64.2469 15.5212 61.842C14.2329 57.8913 14.147 57.7195 9.93861 57.5477C4.78549 57.376 1.35008 54.7135 0.23357 49.9897C-1.05471 44.6648 3.15367 39.0822 8.73622 38.7386C9.50919 38.6528 10.2822 38.6528 11.0551 38.7386C13.4599 38.9104 14.7482 37.6221 15.3494 35.475C16.7236 30.0641 19.2142 25.1686 22.3061 20.5308C24.8827 16.7518 26.2568 16.58 29.5205 19.7578C32.0111 22.1626 34.4159 24.6533 36.8207 27.0581C38.4525 28.6041 38.7961 30.2359 37.4219 32.1254C36.7348 33.0702 36.1336 34.1867 35.6183 35.3032C34.5018 37.6221 35.103 38.6528 37.6796 38.6528C42.2315 38.7386 46.6975 38.6528 51.2495 38.6528C56.059 38.7386 59.5803 41.6588 60.6969 46.4684C61.5557 50.3333 59.4086 55.057 55.2861 56.603C52.8813 57.5477 50.0471 57.376 47.3846 57.6336C46.354 57.7195 45.4093 57.6336 44.3786 57.6336Z" fill="#007EA4"/>
<path d="M64.3857 0.00615106C80.0169 0.693241 93.8444 8.423 103.292 23.539C106.555 28.778 105.611 33.6736 100.973 36.5078C95.9915 39.6856 90.409 38.3973 87.2312 33.33C82.5075 25.6861 75.8085 20.7906 66.9623 19.1588C59.662 17.8705 52.7912 19.2447 46.4357 23.0237C43.6015 24.7414 42.7426 24.5696 40.4237 22.2507C37.9331 19.76 35.4424 17.2693 32.9517 14.7786C30.8046 12.5455 30.8905 10.9996 33.3811 9.11009C41.3685 3.26983 52.2759 -0.165621 64.3857 0.00615106Z" fill="#1AA64A"/>
<path d="M65.0772 86.4072C65.0772 84.2601 65.0772 82.1129 65.0772 79.9658C65.0772 78.3339 65.9361 77.3033 67.3961 77.0456C76.3282 75.1561 82.9414 70.1747 87.5792 62.445C89.6404 59.0095 92.9041 57.6353 96.7689 58.2365C100.29 58.7519 103.039 60.5555 104.585 63.905C105.615 66.224 105.443 68.5429 104.327 70.7759C100.634 77.9045 95.3948 83.573 88.8675 88.0391C82.8555 92.1616 76.1564 94.7382 68.9421 95.7688C66.3655 96.1124 65.1631 95.1676 65.0772 92.591C64.9913 90.6157 65.0772 88.4685 65.0772 86.4072Z" fill="#1AA64A"/>
<path d="M138.596 28.7791V71.894H130.437V28.7791H117.125V21.9082H151.823V28.7791H138.596Z" fill="#007EA4"/>
<path d="M151.828 55.7456C151.828 53.3407 152.258 51.1077 153.202 49.0464C154.061 46.8993 155.435 45.0957 157.067 43.4638C158.699 41.832 160.674 40.6296 162.821 39.7707C164.969 38.9119 167.287 38.4824 169.606 38.4824C172.011 38.4824 174.33 38.9119 176.477 39.7707C178.624 40.6296 180.6 41.9179 182.232 43.6356C183.949 45.2674 185.238 47.1569 186.096 49.3041C186.955 51.3654 187.471 53.5984 187.471 55.9173C187.471 58.3221 187.041 60.5552 186.182 62.6165C185.323 64.6777 184.035 66.5672 182.317 68.1991C180.514 69.9168 178.538 71.2051 176.391 72.0639C174.244 72.9228 171.925 73.3522 169.52 73.3522C167.202 73.3522 164.883 72.9228 162.736 72.0639C160.588 71.2051 158.613 69.9168 156.981 68.2849C155.264 66.5672 153.975 64.6777 153.116 62.6165C152.343 60.3834 151.828 58.1504 151.828 55.7456ZM179.741 55.8314C179.741 52.8254 178.796 50.2488 176.821 48.1876C174.845 46.1263 172.526 45.0957 169.692 45.0957C166.944 45.0957 164.539 46.1263 162.564 48.1876C160.588 50.2488 159.644 52.8254 159.644 55.8314C159.644 58.8375 160.588 61.414 162.564 63.4753C164.539 65.5366 166.858 66.5672 169.692 66.5672C172.526 66.5672 174.845 65.5366 176.821 63.4753C178.796 61.414 179.741 58.8375 179.741 55.8314Z" fill="#007EA4"/>
<path d="M195.453 71.9781V18.9863H202.839V52.9973L216.409 39.5131H225.599L210.912 53.7703L227.059 71.8923H217.44L202.839 55.1444V71.8923H195.453V71.9781Z" fill="#007EA4"/>
<path d="M227.742 55.7456C227.742 53.3407 228.172 51.1077 229.116 49.0464C229.975 46.8993 231.349 45.0957 232.981 43.4638C234.613 41.832 236.588 40.6296 238.736 39.7707C240.883 38.9119 243.202 38.4824 245.52 38.4824C247.925 38.4824 250.244 38.9119 252.391 39.7707C254.538 40.6296 256.514 41.9179 258.146 43.6356C259.863 45.2674 261.152 47.1569 262.01 49.3041C262.869 51.3654 263.385 53.5984 263.385 55.9173C263.385 58.3221 262.955 60.5552 262.096 62.6165C261.237 64.6777 259.949 66.5672 258.231 68.1991C256.428 69.9168 254.453 71.2051 252.305 72.0639C250.158 72.9228 247.839 73.3522 245.435 73.3522C243.116 73.3522 240.797 72.9228 238.65 72.0639C236.503 71.2051 234.527 69.9168 232.895 68.2849C231.178 66.5672 229.889 64.6777 229.03 62.6165C228.257 60.3834 227.742 58.1504 227.742 55.7456ZM255.655 55.8314C255.655 52.8254 254.71 50.2488 252.735 48.1876C250.759 46.1263 248.441 45.0957 245.606 45.0957C242.858 45.0957 240.453 46.1263 238.478 48.1876C236.502 50.2488 235.558 52.8254 235.558 55.8314C235.558 58.8375 236.502 61.414 238.478 63.4753C240.453 65.5366 242.772 66.5672 245.606 66.5672C248.441 66.5672 250.759 65.5366 252.735 63.4753C254.71 61.414 255.655 58.8375 255.655 55.8314Z" fill="#007EA4"/>
<path d="M295.515 48.7887C294.399 47.5004 293.024 46.5557 291.564 45.9545C290.018 45.2674 288.387 44.9238 286.669 44.9238C283.663 44.9238 281.172 45.8686 279.369 47.844C277.565 49.8194 276.62 52.3959 276.62 55.6596C276.62 59.0092 277.565 61.6717 279.369 63.647C281.172 65.5365 283.749 66.5672 287.012 66.5672C288.816 66.5672 290.448 66.2236 291.822 65.5365C293.196 64.8495 294.484 63.8188 295.515 62.4446V71.0333C294.141 71.8062 292.681 72.4074 291.135 72.751C289.589 73.0945 287.957 73.3522 286.154 73.3522C281.086 73.3522 276.964 71.7203 273.7 68.4567C270.522 65.193 268.977 60.9846 268.977 55.8314C268.977 50.5923 270.608 46.3839 273.958 43.2061C277.307 40.0283 281.602 38.3965 286.927 38.3965C288.644 38.3965 290.19 38.5683 291.564 38.9118C292.939 39.2553 294.313 39.7707 295.515 40.4578V48.7887Z" fill="#1AA64A"/>
<path d="M310.542 44.6662C311.315 42.519 312.432 40.9731 313.72 39.9424C315.008 38.9118 316.64 38.3965 318.616 38.3965C319.646 38.3965 320.677 38.4824 321.707 38.74C322.738 38.9977 323.683 39.3412 324.713 39.8566L322.051 46.1262C321.45 45.6968 320.763 45.3533 319.99 45.0956C319.217 44.838 318.444 44.7521 317.499 44.7521C315.008 44.7521 313.291 45.6968 312.174 47.6722C311.144 49.6476 310.542 52.9971 310.542 57.635V71.8921H303.156V39.4271H310.542V44.6662Z" fill="#1AA64A"/>
<path d="M334.501 87.1805H326.858L335.79 69.1444L323.852 39.5137H332.097L338.023 56.2615C338.366 57.2921 338.71 58.3228 338.967 59.3534C339.225 60.384 339.483 61.5006 339.569 62.6171C339.826 61.5006 340.599 59.6969 341.716 57.2062L341.887 56.7768L349.875 39.5137H357.948L334.501 87.1805Z" fill="#1AA64A"/>
<path d="M361.898 87.1799V39.513H369.285V44.838C370.143 42.7767 371.518 41.2307 373.407 40.1142C375.297 38.9977 377.615 38.3965 380.192 38.3965C384.486 38.3965 388.008 40.0283 390.67 43.2061C393.332 46.3839 394.707 50.5923 394.707 55.7455C394.707 61.1563 393.418 65.4507 390.756 68.6284C388.093 71.8062 384.486 73.3522 379.934 73.3522C377.615 73.3522 375.64 72.9228 373.836 71.978C372.033 71.0333 370.487 69.6591 369.199 67.7696V87.2658H361.898V87.1799ZM369.113 55.6596C369.113 59.0092 369.972 61.6717 371.603 63.7329C373.321 65.7083 375.468 66.7389 378.217 66.7389C381.051 66.7389 383.198 65.7942 384.744 63.9047C386.29 62.0152 387.063 59.3527 387.063 55.9173C387.063 52.4818 386.29 49.8194 384.658 47.9299C383.026 46.0404 380.879 45.0097 378.045 45.0097C375.211 45.0097 373.064 45.9545 371.518 47.844C369.886 49.6476 369.113 52.3101 369.113 55.6596Z" fill="#1AA64A"/>
<path d="M404.411 71.9792V46.0415H398.742V39.5142H404.411V27.2324H411.797V39.5142H417.465V46.0415H411.797V71.9792H404.411Z" fill="#1AA64A"/>
<path d="M421.508 55.7456C421.508 53.3407 421.937 51.1077 422.882 49.0464C423.741 46.8993 425.115 45.0957 426.747 43.4638C428.379 41.832 430.354 40.6296 432.501 39.7707C434.648 38.9119 436.967 38.4824 439.286 38.4824C441.691 38.4824 444.01 38.9119 446.157 39.7707C448.304 40.6296 450.279 41.9179 451.911 43.6356C453.629 45.2674 454.917 47.1569 455.776 49.3041C456.635 51.3654 457.15 53.5984 457.15 55.9173C457.15 58.3221 456.721 60.5552 455.862 62.6165C455.003 64.6777 453.715 66.5672 451.997 68.1991C450.193 69.9168 448.218 71.2051 446.071 72.0639C443.924 72.9228 441.605 73.3522 439.2 73.3522C436.881 73.3522 434.562 72.9228 432.415 72.0639C430.268 71.2051 428.293 69.9168 426.661 68.2849C424.943 66.5672 423.655 64.6777 422.796 62.6165C421.937 60.3834 421.508 58.1504 421.508 55.7456ZM449.421 55.8314C449.421 52.8254 448.476 50.2488 446.5 48.1876C444.525 46.1263 442.206 45.0957 439.372 45.0957C436.624 45.0957 434.219 46.1263 432.243 48.1876C430.268 50.2488 429.323 52.8254 429.323 55.8314C429.323 58.8375 430.268 61.414 432.243 63.4753C434.219 65.5366 436.538 66.5672 439.372 66.5672C442.206 66.5672 444.525 65.5366 446.5 63.4753C448.476 61.414 449.421 58.8375 449.421 55.8314Z" fill="#1AA64A"/>
</svg>
